<svg xmlns="http://www.w3.org/2000/svg" width="1024" height="1024"><path fill="#E7EDE7" d="M0 0h1024v1024H0z"/><path fill="#20313E" d="M369.992 242.793c5.035 3.027 9.15 7.635 11.008 13.207.082 1.846.107 3.695.098 5.543l-.01 3.252-.026 3.392-.013 3.428q-.018 4.192-.049 8.385c10.876.19 19.434-.437 29.021-5.779 7.63-4.25 15.63-6.745 23.979-9.221l2.57-.773c13.987-4.162 28.008-7.055 42.43-9.227l2.242-.36c20.7-3.28 42.035-2.187 62.758.36l2.422.292c25.276 3.186 54.275 9.95 76.527 22.837 2.913 1.237 5.654 1.307 8.801 1.496l3.547.227L638 280l-.048-1.8a910 910 0 0 1-.14-8.2l-.076-2.832c-.076-7.272 1.023-12.6 4.952-18.856 4.807-4.807 10.523-8.39 17.437-8.625 7.883.103 14.4 3.839 19.875 9.313 3.982 5.796 3.554 12.099 3.688 18.875l.103 3.531q.123 4.297.209 8.594l2.348.028c24.996.38 43.194 2.613 61.652 20.972l1.707 1.602c8.298 8.538 13.535 22.951 13.553 34.633l.012 2.113c.01 2.33.006 4.66.002 6.99l.016 5.07c.014 4.638.016 9.278.015 13.917.002 5.006.015 10.011.027 15.017.022 10.945.03 21.89.035 32.834q.006 10.256.017 20.512a64599 64599 0 0 1 .042 71.56v3.7c.004 19.772.03 39.545.068 59.319q.057 30.47.058 60.94c0 11.4.009 22.8.038 34.2q.038 14.565.017 29.13c-.008 4.95-.007 9.899.016 14.849q.03 6.81-.003 13.622-.005 2.45.016 4.9c.155 18.805-5.042 35.798-18.126 49.808-13.922 14.075-30.654 17.755-49.769 17.895-4.26.017-8.518-.006-12.777-.034-3.8-.018-7.599-.004-11.398.006-8.832.021-17.664.006-26.495-.015a7133 7133 0 0 0-33.61-.01c-3.759.008-7.516.008-11.274-.013-17.47-.098-34.282.823-51.516 3.988-13.332 2.331-26.724 2.9-40.234 2.904l-2.648.009c-17.689.008-36.505-1.01-53.607-5.974-2.688-.582-5.177-.6-7.928-.603l-3.555-.012-3.89.001-4.106-.01q-4.42-.012-8.841-.017-7.006-.01-14.013-.041l-4.805-.019-2.43-.01c-10.87-.042-21.741-.075-32.611-.087a5396 5396 0 0 1-22.009-.07c-3.876-.019-7.753-.031-11.63-.026q-5.482.005-10.964-.037c-1.96-.01-3.92-.001-5.879.009-15.463-.16-29.905-5.416-41.26-16.097-10.797-11.711-19.508-26.373-19.513-42.69l-.008-2.113c-.008-2.33 0-4.66.006-6.99q-.003-2.535-.01-5.07c-.008-4.64-.004-9.279.003-13.918.004-5.006-.003-10.012-.008-15.017-.01-9.805-.007-19.61-.002-29.415q.007-11.955.003-23.91v-3.436l-.003-6.911q-.006-32.415.012-64.828.012-27.807-.002-55.614a82528 82528 0 0 1-.007-71.47l.001-3.424q.003-11.937-.006-23.873-.009-14.553.007-29.105a6189 6189 0 0 0 0-14.847q-.007-6.8.009-13.6.003-2.456-.004-4.911c-.05-17.985 2.962-32.706 15.952-46.069L277 298l2.152-2.18c5.613-5.38 11.758-8.71 18.848-11.82l2.422-1.102c7.577-2.64 15.598-2.014 23.515-1.96l3.807.013q4.627.018 9.256.049l-.08-2.168c-.104-3.277-.169-6.554-.233-9.832l-.126-3.41c-.134-9.146 2.053-13.58 7.814-20.402 8.018-6.682 16.56-6.86 25.617-2.395"/><path fill="#FBFCFC" d="M339 617h342c0 87 0 87-8 96-1.944 1.755-3.888 3.511-5.89 5.2-2.311 1.972-4.514 4.04-6.735 6.112-29.494 26.523-70.633 43.692-109.375 50.313l-2.155.373C488.499 784.88 425.689 770.621 376 735c-3.792-2.867-7.407-5.89-11-9q-1.677-1.405-3.36-2.805l-3.577-3.008-1.591-1.323C350.257 713.57 344.834 707.834 339 702z"/><path fill="#FCFDFD" d="M504.949 354.815c2.018-.002 4.036-.02 6.055-.04 12.076-.017 23.879 1.262 35.683 3.912l2.221.499c5.998 1.419 11.829 3.245 17.654 5.251l2.45.837c4.964 1.777 9.46 3.972 14.025 6.604 2.164 1.237 4.38 2.282 6.65 3.31 6.981 3.446 13.093 8.174 19.313 12.812l2.437 1.781C630.581 404.14 645.041 422.093 658 442l1.279 1.923c3.196 4.92 5.577 9.961 7.783 15.39l1.048 2.552q1.013 2.481 2.014 4.966a330 330 0 0 0 2.138 5.146c5.566 13.86 7.968 30.147 7.8 45.023l-.013 2.348q-.02 2.826-.049 5.652c-5.329-2.569-8.886-5.798-12.593-10.404-1.472-1.67-3.02-3.027-4.731-4.451-7.038-6.083-13.44-12.856-19.976-19.466-8.7-8.804-8.7-8.804-17.889-17.09-3.464-3.039-6.649-6.364-9.874-9.652-4.803-4.895-9.667-9.544-14.937-13.937-3.555 1.508-5.796 3.576-8.484 6.324l-2.586 2.62-2.68 2.743c-9.851 10.05-9.851 10.05-14.102 13.668-5.923 5.07-11.298 10.727-16.773 16.27a3771 3771 0 0 1-6.602 6.664l-1.487 1.512c-3.275 3.298-6.7 6.255-10.286 9.199a283 283 0 0 0-5 5l-1.832 1.8-1.918 1.887-1.797 1.762c-1.55 1.506-1.55 1.506-2.453 3.551h-3c-1.182-1.385-2.356-2.779-3.477-4.215-2.295-2.69-4.967-4.883-7.652-7.172-2.06-1.776-3.987-3.65-5.871-5.613-3.139 1.388-5.223 2.995-7.61 5.45l-2.038 2.071-2.102 2.166c-3.961 4.063-7.903 8.076-12.21 11.774-5.385 4.628-10.265 9.752-15.212 14.838l-2.195 2.228-1.972 2.024C459 548 459 548 457 548l-.793 1.816c-1.28 2.315-2.47 3.48-4.52 5.121-3.862 3.19-7.449 6.44-10.5 10.438-3.03 3.637-6.573 6.581-10.187 9.625-5.245-4.383-10.131-8.998-14.945-13.848l-2.221-2.225q-3.482-3.491-6.959-6.99l-4.691-4.705a11805 11805 0 0 1-10.476-10.515c-1.509-1.517-3.01-3.039-4.512-4.562-2.215-2.256-2.215-2.256-5.009-4.343L380 526v-2c-4.58 2.459-8.074 5.637-11.813 9.187l-1.943 1.832c-5.109 4.84-10.131 9.767-15.119 14.731l-2.109 2.094-1.946 1.953-1.726 1.73c-1.446 1.451-1.446 1.451-2.344 3.473h-2q-.47-2.312-.938-4.625l-.527-2.602L339 549l-.519-2.636c-.573-4.01-.68-7.917-.72-11.962l-.029-2.494c-.025-2.657-.037-5.313-.045-7.97l-.007-2.737c-.005-13.486.74-26.136 4.32-39.201l.875-3.688C350.519 448.284 369.317 418.904 393 399l2.832-2.527c7.627-6.752 15.668-12.227 24.421-17.42 1.45-.874 2.87-1.795 4.282-2.729 22.61-14.794 53.81-21.512 80.414-21.51"/><path fill="#FBFCFC" d="m549 279 2.241.34c19.878 3.048 40.295 9.048 58.146 18.316a86 86 0 0 0 6.363 2.969c3.032 1.283 5.995 2.58 8.89 4.148 2.395 1.29 2.395 1.29 5.148 2.37 3.376 1.637 5.657 3.088 8.212 5.857 1.443 5.783 1.186 11.392.938 17.313q-.121 4.65-.16 9.3l-.023 2.243c.046 7.282 1.642 12.914 6.21 18.582 6.16 4.88 10.43 7.049 18.41 6.882 6.66-.812 12.274-4.478 17.625-8.32 19.26 18.145 36.385 43.851 45.191 68.848.684 1.82 1.454 3.608 2.243 5.386 1.683 3.899 2.9 7.875 4.066 11.954l.652 2.254c5.881 20.523 8.008 39.704 8.016 60.976l.01 5.959q.009 6.226.007 12.453c0 5.277.014 10.554.031 15.831q.015 6.15.013 12.3 0 2.916.013 5.83c.042 11.587-.461 22.749-2.242 34.209l-.317 2.075c-3.57 23.345-12.587 46.728-25.058 66.737l-1.552 2.501C709.3 670.588 709.3 670.588 708 672h-3c-1.4-2.8-1.128-5.103-1.131-8.236l-.007-1.96q-.007-3.27-.004-6.537l-.01-4.677q-.012-5.05-.017-10.1-.01-8.019-.041-16.037l-.019-5.5-.01-2.783a15714 15714 0 0 1-.087-37.33 7102 7102 0 0 0-.07-25.174c-.019-4.431-.032-8.862-.026-13.294.03-31.94-3.647-60.82-16.578-90.372l-.866-2.017C679.702 433.12 671.33 419.488 661 407l-2.145-2.664c-7.09-8.77-14.134-17.15-22.855-24.336l-1.494-1.276c-39.482-33.721-91.203-49.381-142.74-45.447C475.778 335.02 458.993 338.126 444 344l-3.48 1.3c-26.832 10.2-49.878 25.885-70.52 45.7l-2.57 2.445c-4.993 4.858-9.332 9.928-13.43 15.555l-1.309 1.765c-15.232 20.604-28.24 43.89-33.253 69.298l-.692 3.41c-2.195 12.636-3.048 24.97-3.065 37.765l-.03 4.973a4255 4255 0 0 0-.056 13.335c-.015 4.666-.042 9.332-.068 13.998q-.068 13.216-.116 26.433c-.039 10.04-.088 20.082-.138 30.123q-.154 30.95-.273 61.9c-2.856-2.78-4.926-5.276-6.84-8.781l-1.525-2.782-1.572-2.937-1.63-3.031c-8.705-16.354-14.673-33.83-18.745-51.907l-.446-1.96c-3.118-14.723-3.554-29.133-3.543-44.125l-.013-6.473q-.01-6.75-.002-13.5c.006-5.72-.01-11.44-.034-17.161-.015-4.45-.016-8.899-.013-13.348q0-3.161-.015-6.322c-.054-12.6.673-24.343 3.378-36.673l.878-4.117C292.058 425.78 309.329 392.12 332 367a1070 1070 0 0 0 3.625-4.25L338 360a868 868 0 0 1 6.035 3.035l2.027 1.027 2.036 1.036c4.876 2.313 9.18 2.683 14.406 1.183 7.872-2.91 12.185-7.045 16.496-14.281 1.255-3.62 1.08-7.123 1.035-10.926q.006-2.052.018-4.103c.01-2.14.01-4.278-.029-6.418-.19-11.824-.19-11.824 2.586-15.942 2.033-1.82 4.044-3.223 6.39-4.611l1.708-1.199C418.203 289.638 453.206 281.009 486 277l2.324-.29c20.214-2.289 40.658-.925 60.676 2.29"/><path fill="#FCFDFD" d="M598 482c7.55 3.468 13.169 10.11 18.919 15.938a154 154 0 0 0 10.23 9.43c4.314 3.804 8.255 8.044 12.308 12.124l4.735 4.755q1.614 1.62 3.225 3.246c6.597 6.648 13.25 13.124 20.492 19.076 12.629 10.5 12.629 10.5 13.416 18.672.067 2.868-.013 5.7-.202 8.563-.127 2.276-.12 4.519-.076 6.798.07 3.808.122 7.592-.047 11.398-1.998 1.998-5.97 1.26-8.71 1.32-.808.02-1.617.042-2.45.064-7.497.183-14.997.289-22.496.372a885 885 0 0 0-15.102.28c-4.871.137-9.74.209-14.612.236q-2.774.032-5.544.133c-15.19.53-15.19.53-21.06-4.26-2.852-2.684-5.36-5.585-7.791-8.652-1.614-1.95-3.435-3.55-5.391-5.15-6.05-5.149-11.494-10.952-17.067-16.605-4.566-4.606-9.16-9.088-14.103-13.289-2.351-2.035-4.51-4.218-6.674-6.449 1.666-4.334 4.875-7.133 8.125-10.312l1.648-1.647a165 165 0 0 1 8.907-8.209c5.736-4.967 10.993-10.436 16.32-15.832 12.303-12.463 12.303-12.463 18.379-17.598 1.619-1.4 3.126-2.87 4.621-4.402"/><path fill="#E1E7E2" d="m338 360 1.746.875a767 767 0 0 0 4.29 2.125l2.026 1 2.036 1c1.902 1 1.902 1 4.902 3l-2.062.938c-3.646 2.56-5.803 5.606-8.387 9.199L341 380h-2l-.846 1.75c-1.11 2.166-2.32 4.202-3.615 6.262l-1.43 2.299q-1.467 2.35-2.945 4.695c-3.201 5.163-5.847 10.378-8.164 15.994h-2l-.316 2.07c-.817 3.498-2.155 6.527-3.622 9.805-2.092 4.68-3.754 9.185-5.062 14.125h-2l-.297 1.844c-.97 5.685-2.196 11.261-3.64 16.844-1.761 6.82-3.134 13.656-4.352 20.593C300 480 300 480 298.974 483.598c-1.221 4.861-1.27 9.564-1.265 14.556l-.02 2.984c-.019 3.242-.023 6.484-.025 9.725l-.02 6.825q-.017 7.153-.015 14.305c0 6.06-.027 12.12-.061 18.181-.023 4.703-.026 9.405-.025 14.108q-.004 3.346-.027 6.693c-.088 13.797.731 26.689 4.484 40.025l1 1c.798 3.482 1.484 6.982 2.184 10.484.703 3.03 1.657 5.647 2.816 8.516v3h2l.586 1.863.789 2.45.773 2.425c.84 2.49.84 2.49 2.852 5.262.227 2.727.227 2.727.195 5.98l-.02 3.526-.05 3.682-.027 3.716q-.036 4.548-.098 9.096c-2.908-2.715-4.936-5.294-6.84-8.781l-1.525-2.782-1.572-2.937-1.63-3.031c-8.705-16.354-14.673-33.83-18.745-51.907l-.446-1.96c-3.118-14.723-3.554-29.133-3.543-44.125l-.013-6.473q-.01-6.75-.002-13.5c.006-5.72-.01-11.44-.034-17.161-.015-4.45-.016-8.899-.013-13.348q0-3.161-.015-6.322c-.054-12.6.673-24.343 3.378-36.673l.878-4.117C292.058 425.78 309.329 392.12 332 367a1070 1070 0 0 0 3.625-4.25zM549 279l2.241.34c20.915 3.207 42.094 9.712 60.759 19.66l-1 2q-9.097-.18-18.195-.372-3.087-.065-6.176-.125-4.465-.089-8.93-.187l-2.744-.05c-6.352-.144-12.635-.62-18.955-1.266v-2l-2.824.035-3.864.027-3.761.036c-3.568-.028-7.09-.284-10.645-.582-27.571-2.224-57.064-1.173-83.75 6.652-3.727.983-7.325 1.42-11.156 1.832v2l-2.598.988c-7.294 2.761-7.294 2.761-14.464 5.825C420 315 420 315 416 315v2a3847 3847 0 0 1-7.312 3.938l-2.092 1.13-2.022 1.084-1.856 1C401 325 401 325 398 326v2h-2l.016 1.88q.029 4.216.046 8.433l.026 2.958.01 2.842.016 2.619C396 349 396 349 395 352h-2l-.25 1.625c-2.353 7.452-8.056 11.764-14.625 15.418-5.856 2.599-11.83 2.24-18.125 1.957v-2l-3-1 2.668-.918c9.256-3.339 14.227-6.513 19.332-15.082 1.255-3.62 1.08-7.123 1.035-10.926q.006-2.052.018-4.103c.01-2.14.01-4.278-.029-6.418-.19-11.824-.19-11.824 2.586-15.942 2.033-1.82 4.044-3.223 6.39-4.611l1.708-1.199C418.203 289.638 453.206 281.009 486 277l2.324-.29c20.214-2.289 40.658-.925 60.676 2.29"/><path fill="#B4BCBB" d="M737 669h3q.141 13.6.207 27.202.03 6.316.095 12.634c.044 4.072.067 8.143.078 12.215q.01 2.32.043 4.637c.185 13.725-2.003 24.64-11.736 34.937-6.891 6.67-14.47 9.635-24.07 9.602h-2.16c-2.337 0-4.674-.016-7.012-.032l-4.884-.008a3759 3759 0 0 1-12.813-.05c-4.364-.02-8.728-.03-13.092-.04-8.552-.02-17.104-.055-25.656-.097 1.172-3.515 1.85-3.811 4.91-5.68l2.478-1.546 2.674-1.649c10.301-6.509 19.754-13.759 28.87-21.836l1.892-1.668 1.702-1.522C683 735 683 735 685 735v-2c1.363-1.34 1.363-1.34 3.313-2.937 9.214-7.864 17.22-16.54 24.687-26.063.755-.927 1.51-1.854 2.29-2.809 6.335-7.936 11.722-16.338 16.976-25.028l1.73-2.808 1.537-2.542z"/><path fill="#B6C0BF" d="M282 669c4.021 1.34 5.096 3.92 7.188 7.375q1.202 1.928 2.414 3.852l1.22 1.938c6.996 10.892 15.32 20.927 24.033 30.472a275 275 0 0 1 5.52 6.3c7.796 8.91 16.3 16.782 25.625 24.063l1.587 1.247c9.887 7.754 19.805 15.072 30.856 21.09 4.453 2.456 4.453 2.456 5.557 4.663q-14.748.212-29.497.31c-4.567.032-9.133.074-13.7.143-4.415.065-8.83.1-13.246.116q-2.514.017-5.028.065c-12.704.238-21.993-1.562-31.904-10.259-7.495-8.121-10.758-17.505-10.739-28.368v-2.072q.002-3.367.016-6.736l.005-4.687q.006-6.152.024-12.305.014-6.285.02-12.568.016-12.32.049-24.639"/><path fill="#E1E7E1" d="M650 393h4v2h2v2l4 2v2h2v2h2v2l3 1c5.392 4.943 10.782 10.4 14 17l1.938 1.938c2.195 2.195 3.619 4.32 5.062 7.062v2h2c2 3 2 3 2 6h2c3 5.75 3 5.75 3 8h2l1.242 2.703 1.633 3.547 1.617 3.516c.86 1.843 1.744 3.675 2.703 5.468C707 465 707 465 707 468h2v6h2c6.118 19.132 10.013 38.415 10.332 58.528l.07 3.748c.2 11.37.352 22.742.486 34.114.1 8.385.225 16.768.387 25.151.112 5.92.192 11.84.25 17.762.034 3.524.083 7.047.166 10.571.634 27.662.634 27.662-8.691 39.126a699 699 0 0 0-4 5.875 458 458 0 0 1-3 4.125c-1.477-1.103-1.477-1.103-3-3-.374-2.835-.374-2.835-.372-6.356l-.011-1.963c-.01-2.176.002-4.352.014-6.528q-.003-2.339-.011-4.677-.013-5.046 0-10.092c.011-5.341 0-10.683-.017-16.024-.036-13.286-.042-26.572-.04-39.859.002-10.292-.005-20.584-.04-30.876-.014-4.428-.02-8.855-.007-13.283.09-31.945-3.583-60.785-16.516-90.342l-.866-2.017C679.705 433.128 671.34 419.473 661 407l-4.812-5.875-2.27-2.742C652 396 652 396 650 393"/><path fill="#FAFCFC" d="M502 537c5.783 2.447 9.764 6.607 13.609 11.419 1.556 1.768 3.23 3.235 5.028 4.757 4.46 3.859 8.637 7.954 12.8 12.129l2.32 2.317q2.402 2.4 4.8 4.805a4376 4376 0 0 0 7.392 7.385l4.676 4.68 2.244 2.238 2.045 2.055 1.811 1.813C560 592 560 592 560 593H446c6.828-7.967 6.828-7.967 9.875-11l1.805-1.812c1.87-1.763 3.767-3.423 5.722-5.086 6.41-5.577 12.303-11.702 18.286-17.727l3.666-3.68a7194 7194 0 0 0 6.727-6.76q3.952-3.974 7.919-7.935z"/><path fill="#FBFCFC" d="M683 304q6.077-.223 12.158-.33 2.06-.044 4.12-.123c12.177-.454 20.447 2.278 30.097 9.64 7.49 7.1 10 14.825 10.625 24.813.126 4.92.117 9.837.098 14.758l-.005 4.194q-.006 5.47-.024 10.94-.014 5.6-.02 11.202-.016 10.953-.049 21.906c-3.055-2.897-5.025-6.197-7.125-9.812-6.913-11.68-14.109-22.865-22.548-33.505a524 524 0 0 1-4.159-5.363c-5.59-7.326-5.59-7.326-11.856-14.07l-1.609-1.602a91 91 0 0 0-3.906-3.546c-5.145-5.128-6.238-9.223-6.344-16.3.069-4.277.24-8.536.547-12.802"/><path fill="#F7F9F9" d="m314.832 303.805 3.916.02 4.065.05q2.06.016 4.123.027 5.033.036 10.064.098c.146 3.895.234 7.79.313 11.688l.126 3.341c.125 8.212.125 8.212-2.638 11.932L332 333c-7.69 7.367-14.44 14.995-20.857 23.49a303 303 0 0 1-2.815 3.65c-7.565 9.776-14.19 20.332-20.372 31.024-1.746 2.987-3.451 5.46-5.956 7.836q-.141-13.04-.207-26.08c-.021-4.038-.05-8.075-.095-12.113-.044-3.903-.067-7.806-.078-11.71a457 457 0 0 0-.043-4.446c-.184-13.102 1.862-21.828 11.048-31.452 6.537-6.053 13.212-9.474 22.207-9.394"/><path fill="#E5EBE6" d="M283 690c1.563 3.073 2.867 6.164 4.125 9.375 3.992 9.632 9.068 18.934 15.746 26.977 1.272 1.857 1.712 3.45 2.129 5.648h2l.25 1.875c.563 2.31.563 2.31 2.813 3.375L312 738v2l1.938.75c2.606 1.58 2.354 2.418 3.062 5.25 1.715 1.027 1.715 1.027 4 2q1.9 1.213 3.75 2.5l1.86 1.281L328 753v2l1.648.793c2.729 1.4 5.341 2.951 7.977 4.52 5.35 3.141 10.784 6.003 16.375 8.687v1q-9.283.224-18.567.33-3.15.044-6.302.123c-14.769.358-24.932-.03-36.506-10.078-6.983-7.567-10.746-16.77-10.758-26.996l-.006-3.306.014-3.51.006-3.603c.053-11.005.497-21.974 1.119-32.96"/><path fill="#D4DFDB" d="M339 617h342v87h-1v-86H344c.002 36.774.002 36.774 7 72q.894 3.183 1.75 6.375l.734 2.71L354 701h2v5h2v2h2v2h2c1.783 2.639 2.99 4.972 4 8h2l1 4 1.688.313c3.37 1.001 6.214 2.57 8.69 5.09 9.946 9.8 24.153 16.666 36.622 22.597v2l2.75.313c3.462.732 4.513 1.576 7.25 3.687 2.959 1.43 5.971 2.725 9 4v2l5 1v3c-26.754-3.735-54.926-22.621-75-40q-1.677-1.405-3.36-2.805l-3.577-3.008-1.591-1.323C350.257 713.57 344.834 707.834 339 702z"/><path fill="#E4EAE5" d="M738 692h1c.246 6.634.458 13.268.647 19.904q.102 3.38.228 6.758c.12 3.255.21 6.509.297 9.764l.129 3.01c.242 11.47-3.757 20.876-11.614 29.189-7.575 7.333-15.692 9.697-26.023 9.57l-2.665-.008a1628 1628 0 0 1-8.374-.062q-2.85-.016-5.7-.027-6.962-.035-13.925-.098c1.184-3.552 2.05-3.973 5.125-5.937l2.48-1.594c2.473-1.517 4.992-2.937 7.524-4.352 6.748-4.029 12.969-8.884 19.058-13.832C708 743 708 743 710 743l.313-2.312c.75-2.931 1.522-3.703 3.687-5.688l1-3a283 283 0 0 1 5-5l2-3h2l.813-2.062c1.348-3.335 2.762-6.635 4.187-9.938h2l1-6h2l.367-2.047.508-2.703.492-2.672c.601-2.447 1.413-4.384 2.633-6.578"/><path fill="#AEB9BA" d="M376 557c4.3.478 6.086 2.985 9 6q1.505 1.518 3.014 3.03l1.618 1.627q3.583 3.603 7.171 7.2l3.785 3.807a3724 3724 0 0 0 5.486 5.508l1.711 1.726c2.834 2.91 2.834 2.91 6.215 5.102v2h-73c4.635-5.407 8.996-10.352 14.438-14.875 3.062-2.579 5.552-5.386 8.093-8.469 2.23-2.515 4.886-4.512 7.469-6.656 1.76-1.94 3.373-3.943 5-6"/><path fill="#B7C2C2" d="M502 537c5.783 2.447 9.764 6.607 13.609 11.419 1.556 1.768 3.23 3.235 5.028 4.757 4.46 3.859 8.637 7.954 12.8 12.129l2.32 2.317q2.402 2.4 4.8 4.805a4376 4376 0 0 0 7.392 7.385l4.676 4.68 2.244 2.238 2.045 2.055 1.811 1.813C560 592 560 592 560 593h-36a690 690 0 0 1-6.816-16.523c-.936-2.609-.936-2.609-3.184-3.477-.93-2.004-.93-2.004-1.875-4.562-2.137-5.559-4.707-10.757-7.488-16.016l-1.387-2.672-1.297-2.453C501 545 501 545 501 541l-2-1z"/><path fill="#BAC6C6" d="M598 482c7.55 3.468 13.169 10.11 18.919 15.938a154 154 0 0 0 10.23 9.43c4.314 3.804 8.255 8.044 12.308 12.124l4.735 4.755q1.614 1.62 3.225 3.246c6.597 6.648 13.25 13.124 20.492 19.076 12.63 10.501 12.63 10.501 13.416 18.672a95 95 0 0 1-.198 8.558c-.175 3.033-.125 6.052-.087 9.088.032 3.039-.003 6.075-.04 9.113h-1l.027-3.07c.132-7.483.132-7.483-2.652-14.157-1.883-1.544-1.883-1.544-3.879-2.695L672 571v-3l-3-1v-2l-1.937-.812C665 563 665 563 664 560h-2c-1.48-1.469-1.48-1.469-3.187-3.5-.62-.73-1.24-1.46-1.88-2.21L655 552a1437 1437 0 0 0-3.625-4.125 293 293 0 0 1-6.062-7.125c-2.202-2.699-2.202-2.699-4.375-4.812C639 534 639 534 637.125 531.563c-2.116-2.72-2.116-2.72-5.187-5.063-2.876-2.447-4.095-4.275-5.938-7.5a178 178 0 0 0-4.793-5.45C620 512 620 512 620 510l-1.82-.793c-2.314-1.281-3.435-2.455-5.055-4.52-1.944-2.37-3.85-4.403-6.25-6.312-2.76-2.28-4.691-4.558-6.875-7.375a279 279 0 0 0-5-5z"/><path fill="#B5BEBD" d="m699 731 1 4 1.813.313c2.521.792 3.584 1.603 5.187 3.687v3h2l1-2v3c-1.32.938-2.655 1.86-4.035 2.707-2.394 1.575-4.56 3.352-6.778 5.168-6.66 5.375-13.53 9.94-21.144 13.852-2.165 1.193-2.165 1.193-3.695 3.328-3.206 2.656-5.985 2.453-9.957 2.336l-2.203-.018a561 561 0 0 1-6.938-.123q-2.357-.03-4.715-.055c-3.845-.044-7.69-.113-11.535-.195 1.196-3.587 2.066-3.964 5.191-5.926l2.616-1.666 2.755-1.72q2.662-1.678 5.317-3.364l2.614-1.655c3.09-2.057 5.973-4.322 8.831-6.69L668 748l3 1v1h2v-2c4.47-4 4.47-4 7-4l1-3c4.343-4 4.343-4 8-4l1-4c2 0 2 0 3.625 1.5L695 736l.875-1.937C697 732 697 732 699 731m8 6 2 1-2 1z"/><path fill="#243540" d="m497 699 14.438-.062 4.56-.028 3.56-.008 3.666-.016C526 699 526 699 527 700c.1 1.988.13 3.979.133 5.969l.004 3.668-.012 3.863.012 3.863-.004 3.668-.004 3.393C527 727 527 727 526 728c-2.146.088-4.294.107-6.441.098l-3.561-.008-4.56-.028L497 728z"/><path fill="#1F323D" d="M497 646h29v29h-29z"/><path fill="#1E313E" d="M388 646h29v29h-29z"/><path fill="#243742" d="M552 699h29l.063 13.938.027 4.402.008 3.437.016 3.54C581 727 581 727 580 728c-2.073.088-4.148.107-6.223.098l-3.437-.008-4.403-.028L552 728z"/><path fill="#233541" d="M388 699h29v29l-13.937.063-4.403.027-3.437.008-3.54.016C389 728 389 728 388 727a133 133 0 0 1-.098-6.223l.008-3.437.027-4.403z"/><path fill="#1D313E" d="M443 646h29l.063 13.938.027 4.402.008 3.437.016 3.54C472 674 472 674 471 675c-2.073.088-4.148.107-6.223.098l-3.437-.008-4.402-.028L443 675z"/><path fill="#233641" d="M606 646h29l.063 13.938.027 4.402.008 3.437.016 3.54C635 674 635 674 634 675c-2.073.088-4.148.107-6.223.098l-3.437-.008-4.403-.028L606 675z"/><path fill="#243641" d="m606 699 13.938-.062 4.402-.028 3.437-.008 3.54-.016C634 699 634 699 635 700c.1 1.988.13 3.979.133 5.969l.004 3.668-.012 3.863.012 3.863-.004 3.668-.004 3.393C635 727 635 727 634 728c-2.073.088-4.148.107-6.223.098l-3.437-.008-4.403-.028L606 728z"/><path fill="#203441" d="m443 699 13.938-.062 4.402-.028 3.437-.008 3.54-.016C471 699 471 699 472 700c.1 1.988.13 3.979.133 5.969l.004 3.668-.012 3.863.012 3.863-.004 3.668-.004 3.393C472 727 472 727 471 728c-2.073.088-4.148.107-6.223.098l-3.437-.008-4.402-.028L443 728z"/><path fill="#1E313C" d="m552 646 13.938-.062 4.402-.028 3.437-.008 3.54-.016C580 646 580 646 581 647c.1 1.988.13 3.979.133 5.969l.004 3.668-.012 3.863.012 3.863-.004 3.668-.004 3.393C581 674 581 674 580 675c-2.073.088-4.148.107-6.223.098l-3.437-.008-4.403-.028L552 675z"/><path fill="#B9C4C6" d="M637 415c9.217 6.506 14.932 17.678 21 27l1.279 1.923c3.196 4.92 5.577 9.961 7.784 15.39l1.047 2.552a1068 1068 0 0 1 2.014 4.966 330 330 0 0 0 2.138 5.146c5.566 13.86 7.968 30.147 7.8 45.023l-.013 2.348q-.02 2.826-.049 5.652c-3.777-1.76-6.267-3.811-9-7v-4c-1.434-15.957-2.916-32.076-9-47-1.271-3.326-2.51-6.662-3.75-10l-.964-2.54-.895-2.397-.812-2.153C655 448 655 448 655 445l-3-1c-1.316-2.11-1.316-2.11-2.562-4.75l-1.254-2.61c-1.57-3.5-2.971-7.001-4.184-10.64l-3-1c-1.168-1.777-1.168-1.777-2.187-3.937l-1.043-2.153C637 417 637 417 637 415"/><path fill="#DFE5E1" d="M683 304h19l.184 8.61q.092 4.13.188 8.26.066 2.87.125 5.738.088 4.125.187 8.251l.05 2.59.06 2.425.048 2.126c.165 2.092.594 3.983 1.158 6q-1.696-1.695-3.387-3.395a281 281 0 0 0-3.445-3.367 180 180 0 0 1-4.031-4.05c-2.107-2.216-2.107-2.216-4.43-4.188-5.12-5.075-6.143-9.181-6.252-16.197.066-4.28.262-8.53.545-12.803"/><path fill="#E2E9E5" d="M360 710h2c1.783 2.639 2.99 4.972 4 8h2l1 4 1.688.313c3.37 1.001 6.214 2.57 8.69 5.09 9.946 9.8 24.153 16.666 36.622 22.597v2l2.75.313c3.462.732 4.513 1.576 7.25 3.687 2.959 1.43 5.971 2.725 9 4v2l5 1v3c-26.663-3.722-55.057-22.574-75-40l-2.633-2.23c-6.231-5.363-6.231-5.363-7.367-8.77 3-2 3-2 5-3z"/><path fill="#A7B3B5" d="M282 669c4.021 1.34 5.096 3.92 7.188 7.375q1.202 1.928 2.414 3.852l1.22 1.938c4.643 7.229 10.01 13.93 15.412 20.597 2.096 2.656 3.96 5.379 5.766 8.238h-6l2-1-1-2-2 3-3-1-2 2-2-1c-1.99.097-1.99.097-4.125.438L292 712q-1.444-2.809-2.875-5.625l-1.617-3.164C286 700 286 700 284 694l-1 18h-1z"/><path fill="#DFE7E3" d="M680 359c5.598 4.548 10.314 9.523 15 15-7.037 5.536-14.312 5.527-23 5-1.343-.29-2.683-.607-4-1v-2l-2.75-.187c-4.013-1.004-5.071-2.377-7.25-5.813v-2l2.125-.297c7.716-1.216 14.408-2.853 19.875-8.703"/><path fill="#EBF1F2" d="M357 264h5q.034 15.202.052 30.406.007 7.059.023 14.118.016 6.808.02 13.616.003 2.601.01 5.203.01 3.635.009 7.27l.01 2.188c-.01 4.97-.01 4.97-1.124 7.199h-4z"/><path fill="#F6FCFD" d="M660 263h3v81l-4-1q-.034-15.424-.052-30.85-.007-7.16-.023-14.322-.016-6.906-.02-13.81-.003-2.641-.01-5.282-.01-3.686-.009-7.37l-.01-2.228c.01-5.024.01-5.024 1.124-6.138"/><path fill="#ACBABE" d="M637 415c8.763 6.186 14.117 16.513 19.91 25.348a224 224 0 0 0 2.598 3.836c2.992 4.449 5.135 9.24 7.304 14.128l.954 2.143c1.297 3.003 2.234 5.24 2.234 8.545l-3 1c-3-6.75-3-6.75-3-9h-3l1-5h-4a480 480 0 0 1-1.5-3.812l-.844-2.145C655 448 655 448 655 445l-3-1c-1.316-2.11-1.316-2.11-2.562-4.75l-1.254-2.61c-1.57-3.5-2.971-7.001-4.184-10.64l-3-1c-1.168-1.777-1.168-1.777-2.187-3.937l-1.043-2.153C637 417 637 417 637 415"/><path fill="#ACB8B7" d="m659 755 7 5-1 9-26 1c1.202-3.605 2.096-3.973 5.254-5.918 1.28-.798 1.28-.798 2.588-1.611l2.72-1.659 2.733-1.693Q655.64 757.05 659 755"/><path fill="#DDE4E2" d="m403 744 13 6v2l2.75.313c3.462.732 4.513 1.576 7.25 3.687 2.959 1.43 5.971 2.725 9 4v2l5 1v3c-4.614-.629-8.84-1.812-13.187-3.437l-2.047-.763c-8.965-3.48-17.36-8.16-25.766-12.8l2-2h3z"/><path fill="#B7C2C3" d="M389 573h2l1 4h-2v2h3v2l4-1v3l1-4c4.43.422 6.835 3.463 9.75 6.5l1.535 1.55C413 590.847 413 590.847 413 592h-15l1-7h-2v2h-2v2h-2v-3l-2 3h-2v-2h-5l2-4 2 1-.062-3.812c-.047-2.829.145-4.437 1.062-7.188"/><path fill="#BCC2C0" d="m699 731 1 4 1.813.313c2.521.792 3.584 1.603 5.187 3.687v3h2l1-2v3c-1.309.93-2.631 1.844-4 2.684-4.23 2.783-8.077 6.122-12 9.316-2.062-2.312-2.062-2.312-4-5 1.23-3.688 2.939-4.724 6-7l-1-1c-.273-5.736-.273-5.736 0-8 2-2 2-2 4-3m8 6 2 1-2 1z"/><path fill="#DEE4E0" d="M650 393h4v2h2v2l4 2v2h2v2h2v2l3 1a84 84 0 0 1 5 5l1.844 1.934L675.75 415l1.797 1.938c1.663 2.36 2.078 4.224 2.453 7.062l-2 1-1-4h-2l-2 3-1.04-1.809c-5.342-8.856-11.88-16.593-18.559-24.464C652 396 652 396 650 393"/><path fill="#D4DADB" d="M714 361h4c3 4.071 3 4.071 3 7l3 1c1.902 2.477 1.902 2.477 3.938 5.625l2.12 3.281C736 387.374 736 387.374 736 390l4-1v12c-3.035-3.035-4.996-6.145-7.125-9.812-3.132-5.3-6.313-10.56-9.625-15.75l-2.11-3.317a72 72 0 0 0-4.906-6.398C714 363 714 363 714 361"/><path fill="#BCC6C4" d="M656 537c5.865 3.459 10.301 8.113 15 13l-2 2h-3v-3h-2l1 3-7 2c-4.875-4.75-4.875-4.75-6-7l2-1v-4l5 1v-2l-3-1z"/><path fill="#919EA3" d="M737 669h3v21h-1l-1-11h-2v6h-6l-.437 1.813c-.938 3.646-1.655 5.78-4.563 8.187a134 134 0 0 1-6 3 68.5 68.5 0 0 1 4.426-7.828l1.416-2.176 1.47-2.246q1.433-2.195 2.864-4.39l1.424-2.17a136 136 0 0 0 2.765-4.52l1.303-2.217 1.145-2.01z"/><path fill="#223237" d="m340 276 .375 1.938L341 280l2 1-1 6h-5v-4l-3.5.5c-7.139.814-14.327.58-21.5.5v2l-5 1v-2l-2-2c4.015-1.9 7.19-2.236 11.613-2.195l3.78.02 3.92.05 3.978.027q4.855.036 9.709.098l1-3z"/><path fill="#A2AEB0" d="M693 726v6l-3 2-1 3a154 154 0 0 1-5 3c-2.402 2.056-4.7 4.2-7.012 6.355C675 748 675 748 673 748v2l-4 1c0-3 0-3 1.938-5.187A232 232 0 0 1 674 743l2.266-2.102C682.726 735 682.726 735 685 735v-2c1.75-1.727 1.75-1.727 4-3.625l2.25-1.914z"/><path fill="#435458" d="M471 700h1c.029 4.48.047 8.958.063 13.438l.025 3.876.01 3.682.016 3.412C472 727 472 727 471 728c-2.073.088-4.148.107-6.223.098l-3.818-.01-4.022-.025q-2.016-.008-4.033-.014A3769 3769 0 0 1 443 728v-1l25-1v-6l.563-2.125c.527-2.26.14-3.69-.563-5.875h3z"/><path fill="#D8E1DC" d="M423 755a92 92 0 0 1 6.125 2.438l3.32 1.433L435 760v2l5 1v3c-5.138-.64-9.588-2.197-14.375-4.062l-2.23-.854q-2.7-1.036-5.395-2.084l3-1v-2z"/><path fill="#45565B" d="M468 646h4q.037 5.955.055 11.908.008 2.026.02 4.054c.013 1.938.018 3.877.023 5.815l.016 3.54C472 674 472 674 471 675c-2.073.088-4.148.107-6.223.098l-3.818-.01-4.022-.025q-2.016-.009-4.033-.014A3769 3769 0 0 1 443 675v-1l26-1 1-26z"/><path fill="#33474A" d="M388 656c3.4 5.1 2.11 10.994 2 17h26l1-4v6h-29z"/><path fill="#495A5E" d="M580 647h1c.029 4.48.047 8.958.063 13.438l.025 3.876.01 3.682.016 3.412C581 674 581 674 580 675c-2.073.088-4.148.107-6.223.098l-3.818-.01-4.021-.025q-2.018-.009-4.034-.014A3769 3769 0 0 1 552 675v-1h26c.29-8.511.29-8.511.568-17.023l.116-3.192.11-3.285C579 648 579 648 580 647"/><path fill="#F5F8F9" d="M381 411c1.563 1.188 1.563 1.188 3 3-.312 2.688-.312 2.688-1 5l-2-2-3.809 6.836A119 119 0 0 0 375 428a100 100 0 0 1-4 3l.5-2.812c.577-3.144.577-3.144.5-6.188 1.46-2.191 1.46-2.191 3.375-4.562l1.898-2.38C379 413 379 413 381 411"/><path fill="#C3D6D5" d="M508.375 354.875q2.145.016 4.29.027 5.168.034 10.335.098v1l-2.048.06c-3.068.095-6.135.205-9.202.315l-3.223.094-3.105.117-2.857.095c-2.648.33-4.236 1.074-6.565 2.319-2.325.387-4.659.73-7 1l-1-2-2.5.5c-3.913.559-7.552.568-11.5.5 9.689-5.595 23.492-4.26 34.375-4.125"/><path fill="#A7B3B3" d="M357 576c.687 2.49 1 4.379 1 7l-5 1v3c-.31 1.671-.64 3.339-1 5h-9c1.868-3.735 3.172-5.069 6.336-7.562 2.896-2.502 5.256-5.475 7.664-8.438"/><path fill="#1C2B32" d="M443 646h25c-3.686 1.843-4.721 2.247-8.547 2.195l-2.558-.02-2.645-.05-2.691-.027A971 971 0 0 1 445 648v13l-2 1z"/><path fill="#D4DDE1" d="M729 383c2.798.386 3.82.801 5.75 2.938C736 388 736 388 736 390l4-1v12c-2.965-2.965-5.03-6.016-7.187-9.562l-1.116-1.788C729 385.252 729 385.252 729 383"/><path fill="#A8B4B6" d="M718 698c2 3 2 3 1.625 5.688L719 706l-1.937.375L715 707l-1 2h-2l-1 6-6-1 2.563-2.937c3.635-4.235 7.043-8.635 10.437-13.063"/><path fill="#D2DFDE" d="M371 362c2 1 2 1 3 2l2 1-1.937.813c-2.394 1.074-2.394 1.074-3.063 4.187q-2.655.079-5.312.125l-2.989.07C360 370 360 370 357 368l2.809-1.059 3.628-1.378 3.622-1.372c2.785-.905 2.785-.905 3.941-2.191"/><path fill="#D7E2DD" d="M307 403c3 2 3 2 3.512 3.945L311 413l-5-1-.312 1.813c-.791 2.516-1.772 3.425-3.688 5.187l-2 3c-1-3-1-3-.38-4.81l1.032-1.983 1.104-2.158 1.182-2.236 1.17-2.272A797 797 0 0 1 307 403"/><path fill="#1B2A2F" d="m629 592.938 3.504.013q4.248.018 8.496.049l-1 2c-10.42 2.059-21.498.72-32 0v-1c7.02-1.093 13.905-1.115 21-1.062"/><path fill="#F0FEF8" d="M639 618h34l-1 2-2.937-.035c-9.731-.078-19.36.312-29.063 1.035z"/><path fill="#C7CDCA" d="M705 740h2v2h2l1-2v3c-1.309.93-2.631 1.844-4 2.684-4.23 2.783-8.077 6.122-12 9.316l-2-3 1.875-.25c2.275-.55 2.275-.55 3.25-2.625L698 747c2.059-3.088 2.855-3.478 6-5z"/><path fill="#273843" d="m326 719 3 2c2.113.633 2.113.633 4 1v5l2 1-1 2h3l-1 3c-4.526-3.678-8.394-7.41-12-12h2zm6 1h3v2l-3-1z"/><path fill="#ABB9BB" d="M322 720c4.526 3.678 8.394 7.41 12 12l-3 4-2-1-.375-2.875c-.308-3.223-.308-3.223-2.687-4.875L324 726v-2h-2l-1 2v-2l-2-1h2z"/><path fill="#CED7D9" d="M650 393h4v2h2v2l4 2v2h2v2h2l1 4-3 1a3951 3951 0 0 1-5.437-6.375l-1.565-1.828c-3.885-4.57-3.885-4.57-4.998-6.797"/><path fill="#D7E1DE" d="M472 281c-3.277 2.903-5.953 3.58-10.25 4.188l-3.266.48L456 286v-2l-4-1a619 619 0 0 1 6.625-1.562l3.727-.88c3.587-.549 6.139-.373 9.648.442"/><path fill="#142C33" d="m457 722 1.938.563L461 723l1-1h4l1 5h-23l1-2h11z"/><path fill="#515E61" d="m509.5 252.938 3.648.013q4.426.018 8.852.049v1l-18 1v1h-18c5.104-5.104 16.773-3.11 23.5-3.062"/><path fill="#1D2B33" d="M476 776c6.769-.102 13.303-.03 20 1v1h-8v3l-8 1v-5z"/><path fill="#DEE5E8" d="M587 492c0 3.598-.895 4.222-3 7-.705 2.147-.705 2.147-1 4h-3c-1.684 1.136-1.684 1.136-3.312 2.688l-1.836 1.644L573 509a424 424 0 0 1-3.437 2.875L567 514c1.487-3.466 3.457-5.69 6.133-8.328l2.441-2.422 2.551-2.5 2.574-2.547A2086 2086 0 0 1 587 492"/><path fill="#15262F" d="m340 276 .375 1.938L341 280l2 1-1 6h-5v-4l-20-1v-1h21l1-3z"/><path fill="#9EACB0" d="M374 763c4.308 1.566 8.062 3.683 12 6v1l-16-1 3-3z"/><path fill="#BEC7C3" d="M723 711h6c-.607 4.86-2.728 8.74-5 13-.687-2.49-1-4.379-1-7h-2l-1-4 2 1z"/><path fill="#404D55" d="m508.5 331.875 3.36.027q4.07.036 8.14.098v1l-19 1v1c-4.41 1.102-8.484 1.077-13 1v-2c6.914-2.131 13.299-2.237 20.5-2.125"/><path fill="#61706F" d="M337 512h1l.076 2.687q.144 5.004.296 10.008.065 2.152.125 4.306c.227 8.032.523 16.016 1.503 23.999-2-2-2-2-2.125-5.125L338 545h-2z"/><path fill="#B4C1C1" d="m622 503 7 6-2 4h-3l-1 2c-1.562-1.187-1.562-1.187-3-3 .25-2.437.25-2.437 1-5z"/><path fill="#283940" d="m367 423 2 4-7 10-2-2c.375-3.625.375-3.625 1-7h2l1-3z"/><path fill="#C1CACD" d="m659 455 3 1v4l3 1c.224 1.414.428 2.832.625 4.25l.352 2.39c.026 2.682-.611 4.087-1.977 6.36a2224 2224 0 0 1-2.5-7.812l-.723-2.237c-.976-3.084-1.777-5.696-1.777-8.951"/><path fill="#2F3C44" d="m411 358 2 1c-.062 1.75-.062 1.75-1 4-5.012 3.58-8.902 4.572-15 5 4.424-3.71 9.174-6.846 14-10"/><path fill="#D0DCD9" d="M338 360c2.468 1.152 4.048 2.048 6 4-7.286 4.571-7.286 4.571-12 4 1.736-3.058 3.385-5.634 6-8"/><path fill="#1C2B30" d="M724 285c-3.051 1.017-4.127.977-7.187.5-4.5-.583-8.345-.231-12.813.5v-3c7.59-1.898 13.129-1.436 20 2m-11 0 4 1Z"/><path fill="#C5CED0" d="m632 515 1 2 3 1-1.062 2.875c-1.288 2.996-1.288 2.996.062 5.125l-2 2c-2.062-1.562-2.062-1.562-4-4 .25-3.75.25-3.75 1-7h2z"/><path fill="#C7D0CF" d="M445.25 765.25c3.259.889 6.51 1.797 9.75 2.75v2l6 1c-3.122 1.007-4.99.973-8.11.004l-2.285-.693-2.355-.749-2.402-.736c-1.952-.6-3.9-1.212-5.848-1.826 3-2 3-2 5.25-1.75"/><path fill="#32474E" d="M603.125 377.125 605 378c1 3 1 3 1 5l2 2v2c-4.435-1.394-6.874-3.606-10-7 2.427-3.034 2.427-3.034 5.125-2.875"/><path fill="#2C3D4A" d="m732 620 1 2h2c1.126 3.378.728 4.603 0 8a99 99 0 0 0 0 5l-.812-1.875C733.044 630.7 733.044 630.7 730 629z"/><path fill="#29383E" d="m293 424 4 1-4 11h-3c-.295-5.023.015-7.895 3-12"/><path fill="#344147" d="m670 714 1 2c-.999 2.997-1.651 4.027-4 6h-2v2h-2v3c-4 0-4 0-6-1l2.59-2.371 3.347-3.067 1.71-1.564c2.713-2.46 2.713-2.46 5.353-4.998"/><path fill="#2A3C43" d="m339 479 4 1-2 11-4-2c-.25-6.625-.25-6.625 2-10"/><path fill="#CCD4D4" d="M714 361h4c3 4.071 3 4.071 3 7l3 1-1 5-1.687-2.125c-1.212-1.506-2.429-3.01-3.692-4.473C714 363.204 714 363.204 714 361"/><path fill="#ABB8B6" d="m353 748 7 4-1 2-2-1-2 4h-3c-.125-6.75-.125-6.75 1-9"/><path fill="#E7EDEF" d="m415 382 2 1-1.062 1.875c-.31.701-.62 1.402-.938 2.125l1 2-2 2-3-2c-2.054.41-2.054.41-4 1l-2-1z"/><path fill="#A8B4B3" d="m678 741 1 3a91 91 0 0 1-4 4h-2v2l-4 1c0-3 0-3 2.25-5.562 2.268-2.01 3.982-3.31 6.75-4.438"/><path fill="#9BA9AB" d="M730 686c-1.936 6.702-1.936 6.702-5 9a134 134 0 0 1-6 3c2.013-4.575 5.364-12 11-12"/><path fill="#A9BABA" d="M502 537c3.161 1.37 3.993 1.99 6 5l-2 3-5-2v-2l-2-1z"/><path fill="#C7D2D1" d="m598 482 4 2-1 7c-3.736-1.245-4.188-2.634-6-6z"/><path fill="#EFF3F6" d="m356 446 3 1c.313 2.25.313 2.25 0 5-4.108 4-4.108 4-7 4 1.002-3.793 1.81-6.715 4-10"/><path fill="#A9B2B7" d="M637 415c4.696 3.315 7.725 7.363 11 12l-2 1v-2h-2.25c-3.28-1.193-3.539-1.918-5.062-4.937C637 417.387 637 417.387 637 415"/><path fill="#A3AEAE" d="m368 565 2 1-2 1zm-1 2c1.046 3.137 1 5.724 1 9l-4-1v-2l-4 1c4.75-5.875 4.75-5.875 7-7"/><path fill="#A6B5B6" d="M508 542c4.274 1.583 6.265 4.506 9 8-3.75 2-3.75 2-6 2-1.129-3.311-2.213-6.59-3-10"/><path fill="#293841" d="m289 756 7 6-1 3-7-1z"/><path fill="#2A3D46" d="m343 737 2.313.563c2.777.665 2.777.665 5.687-.563v6l-3 1c-2.264-1.404-4.02-3.197-6-5z"/><path fill="#36434A" d="M564 511h3c-1.477 3.452-3.438 5.65-6.125 8.25l-2.195 2.14L557 523l-1-3h2l.25-2.375C559 515 559 515 561 513.813l2-.813z"/><path fill="#283A3E" d="M300 409h4c-1.156 3.912-2.355 6.875-5 10-2.125-4.625-2.125-4.625-1-8z"/><path fill="#D2DDDC" d="m680 359 3 3h-2l-2 5h-6l-1-2z"/><path fill="#304148" d="m684 359 1 2h3v3l4 1-1 5c-3.26-3.17-6.222-6.4-9-10z"/><path fill="#CFD6D7" d="M704 348c2.812.355 3.826.804 5.738 2.96l1.574 2.415 1.614 2.398C714 358 714 358 713 361a2779 2779 0 0 1-4.5-5.937c-.43-.564-.859-1.128-1.3-1.71-3.2-4.24-3.2-4.24-3.2-5.353"/><path fill="#DAE4E5" d="M706 664c2 .25 2 .25 4 1l1 3-5 5c-1-1-1-1-1.125-4.5C705 665 705 665 706 664"/><path fill="#D6E1E0" d="M307 660c3.051 1.017 3.826 1.826 6 4h2v8c-3.975-3.407-5.868-7.328-8-12"/><path fill="#9DADAF" d="M378 557c2.519 1.26 4.123 2.922 6 5l-5 2v-3h-2l-1 2-4-2c3.394-4 3.394-4 6-4"/><path fill="#283941" d="m675 354 4 2v2l4 1c-4.625 3-4.625 3-8 3-1.125-1.75-1.125-1.75-2-4 .875-2.25.875-2.25 2-4"/><path fill="#B3C0C1" d="m611 493 7 6-2 3v-2h-3v2h-2c-.879-6.152-.879-6.152-1-8z"/><path fill="#2D3D45" d="M681 441h3a875 875 0 0 1 2 4.375l1.125 2.46C688 450 688 450 688 452l-3 1a1151 1151 0 0 1-2-4.875l-1.125-2.742C681 443 681 443 681 441"/><path fill="#EAF1EF" d="m382 316 3 1-1 3c-.15 1.918-.248 3.84-.316 5.762l-.127 3.388-.12 3.538-.13 3.572A3303 3303 0 0 0 383 345h-1z"/><path fill="#9CA9AF" d="M283 670h2l5 9h-4l-2-2h-1z"/><path fill="#263742" d="M393 569h5c2.125 4.625 2.125 4.625 1 8l-7-6z"/><path fill="#B4BFC0" d="m650 531 4 4c-2 2-2 2-4.062 2.5L648 538l-1 2-3-1v-3h4z"/><path fill="#E7EEF0" d="M365 431c2.152 3.228 2.2 4.284 2 8l-2.312.375c-2.89.506-2.89.506-5.688 2.625 1.45-4.11 3.511-7.433 6-11"/><path fill="#2D3D42" d="M666 415c3.291 1.135 3.996 1.993 5.75 5.125L673 423l-2 1c-2.562-1.25-2.562-1.25-5-3-1-3-1-3 0-6"/><path fill="#D3DEDE" d="m440 258 11 2c-2.855 1.903-4.42 2.462-7.687 3.125l-2.45.508L439 264v-3l2-1z"/><path fill="#DCE4E1" d="M537 250c5.546-.37 5.546-.37 7.688 1.375L546 253l3 2c-4.61 1.297-8.338.711-13 0v-1l5-1z"/><path fill="#9FADB1" d="M643 765c2.688.875 2.688.875 5 2v3h-9c1-3 1-3 4-5"/><path fill="#A0ABAC" d="M357 576c.687 2.49 1 4.379 1 7l-2.312.313c-2.859.73-3.845 1.457-5.688 3.687l-2-2z"/><path fill="#EAF0F1" d="m297 309 2 1-1.437 1.813c-1.728 2.19-1.728 2.19-2.563 5.187-2.562 1.688-2.562 1.688-5 3l-2-2z"/><path fill="#A9B4B6" d="m709 714 1 4h-4c-2.25 1.917-2.25 1.917-4 4l-2-3c4.5-5 4.5-5 9-5"/><path fill="#2D3B3E" d="M328 368h2c-.472 4.248-2.967 6.2-6 9v-2h-2l1-4h2l1.5-1.5z"/><path fill="#373F46" d="M758 318c2.517 2.517 3.11 4.576 4 8-.375 2.375-.375 2.375-1 4v-3l-3-1c-2-3-2-3-1.687-5.125C757 319 757 319 758 318"/><path fill="#2A3A3D" d="m467.75 793.438 2.422.308L472 794l1 3a675 675 0 0 1-6.437-.375c-1.195-.07-2.39-.14-3.622-.21-.97-.138-1.94-.274-2.941-.415l-1-2c3.122-.967 5.52-.99 8.75-.562"/><path fill="#ACB7B6" d="m370 760 4 2-1 4 2 1c-1.812.625-1.812.625-4 1l-3-2z"/><path fill="#182B35" d="M740 474h2c.222 1.79.427 3.582.625 5.375l.352 3.023L743 485l-2 2c-1.322-2.645-1.097-4.678-1.062-7.625l.027-3.04z"/><path fill="#182B34" d="m312.625 282.438 3.04.308L318 283v1h-6v2l-5 1v-2l-2-2c2.728-1.364 4.61-.878 7.625-.562"/><path fill="#2D3841" d="m714 661 3 3c-1.187 2.438-1.187 2.438-3 5l-5 1z"/><path fill="#283945" d="m443 586 1 3 2-2c2.125.375 2.125.375 4 1l-5 5-3-1a100 100 0 0 1 0-5z"/><path fill="#263943" d="M645 353h1l3 9c-3 0-3 0-5.187-2L642 358c1.875-3.875 1.875-3.875 3-5"/><path fill="#E4ECEB" d="M600 298a365 365 0 0 1 4.875-.125l2.742-.07C610 298 610 298 612 300c-1 1-1 1-3.504 1.098l-3.058-.036-3.067-.027L600 301z"/><path fill="#DCE2DF" d="M338 244h3v3l2 1-4 6c-1.804-2.76-2.013-3.89-1.625-7.25z"/><path fill="#2C3C41" d="M303 785c2 3 2 3 2 5h3v2c-6.625-.75-6.625-.75-10-3l1.938-.312L302 788z"/><path fill="#9BA5A7" d="M718 698c2 3 2 3 1.625 5.688L719 706l-1.812-.5c-2.301-.611-2.301-.611-5.188-.5z"/><path fill="#D5DDDB" d="M318 385c1.077 3.232 1.256 3.949 0 7-2.562 2.75-2.562 2.75-5 5l-1-2c1.215-2.383 1.215-2.383 2.938-5.125l1.714-2.758z"/><path fill="#36484D" d="M558 362h11v2h2l1 3a949 949 0 0 1-4.75-1.375l-2.672-.773C562 364 562 364 558 362"/><path fill="#C9D6D3" d="M438 288v2l-2.437.875c-2.696.858-2.696.858-3.563 3.125l-6-2c3.86-2.573 7.332-4 12-4"/><path fill="#38454F" d="M453 552v8l-6 1c.472-4.248 2.967-6.2 6-9"/><path fill="#E8EFF1" d="m427 375 2 1c-.743 2.395-1.47 3.708-3.691 4.934-1.75.738-3.528 1.406-5.309 2.066v-4c5.273-3.223 5.273-3.223 7-4"/><path fill="#DDE7E9" d="M641 356c2.648 2.578 4.944 4.916 7 8-2.312.313-2.312.313-5 0-1.875-2.312-1.875-2.312-3-5z"/><path fill="#E3ECEC" d="M684 304h3l-2 16h-1z"/><path fill="#18282F" d="M521 273c1.525.09 3.047.245 4.563.438l2.503.308L530 274c-2 2-2 2-5.477 2.195a289 289 0 0 1-4.148-.07l-2.14-.027A625 625 0 0 1 513 276l1-2c1.454.03 1.454.03 2.938.063 2.937.293 2.937.293 4.062-1.063"/><path fill="#2C3A3E" d="M465 259c-4.93 2.04-8.58 3.407-14 3v-2q2.371-.546 4.75-1.062l2.672-.598c2.565-.338 4.149-.152 6.578.66"/><path fill="#313E42" d="M292 628c4.26 6.391 4.26 6.391 3.625 10.313L295 640l-3-2c-.293-2.383-.293-2.383-.187-5.125l.082-2.758z"/><path fill="#37454E" d="M464 570c2.625-.187 2.625-.187 5 0a707 707 0 0 1-2.875 3.438l-1.617 1.933C463 577 463 577 461 578c.547-3.375 1.055-5.082 3-8"/><path fill="#A3B1B3" d="m664 544 7 6-2 2h-3c-1.765-3.088-2-4.233-2-8"/><path fill="#D5DEE1" d="m495 544 1 4-2.187 1.188c-3.04 1.958-5.334 4.192-7.813 6.812l-2-1z"/><path fill="#2B3B44" d="m515 516 6 5-1 3c-3.875-.875-3.875-.875-5-2-.04-2-.043-4 0-6"/><path fill="#2D3F4B" d="m733 440 2 1c1.192 4.369 1.022 6.956-1 11-2.83-3.996-1.762-7.427-1-12"/><path fill="#334349" d="M340 356c5.223 4.821 5.223 4.821 6 9a396 396 0 0 1-4-2.375c-.743-.44-1.485-.882-2.25-1.336L338 360v-2h2z"/><path fill="#263943" d="m663 257 1 2c-1.215 3.424-3.018 5.012-6 7l-2-4h2v-4h2v2h2z"/><path fill="#465557" d="m660.688 239.938 2.449.027L665 240v1l-10 2v2l-6-1c3.908-3.1 6.71-4.135 11.688-4.062"/><path fill="#2C3740" d="M280 736c2.583 2.221 3.44 3.678 3.813 7.063L284 747l-2 2c-.796-2.915-1.253-5.746-1.562-8.75l-.254-2.422z"/><path fill="#A6B5B8" d="M389 568q1.723 1.432 3.438 2.875l1.933 1.617C396 574 396 574 397 576l-4 1 1-3-3 1c-1.46-2.647-2-3.894-2-7"/><path fill="#D1DADA" d="M270 767c4.875 4.625 4.875 4.625 6 8l-5-1z"/><path fill="#CBD6D3" d="M440 763v3c-3.719-.507-6.735-1.116-10-3 3.694-1.231 6.206-.644 10 0"/><path fill="#2B3B47" d="M284 749h2c.625 1.813.625 1.813 1 4-2 3-2 3-3 4h-2c-.2-3.716-.152-4.772 2-8"/><path fill="#28383F" d="m695 720 3 1-6 7-2-2z"/><path fill="#A0AFB3" d="M298 693c2.622 1.049 3.794 1.65 5.25 4.125L304 699h-5l-2-5z"/><path fill="#2B3842" d="m562 561 6 5-2 2-3-2h-3z"/><path fill="#28373A" d="m369 559 1 2h2l-2 4h-2l-1 3h-2v-3l2-1a78 78 0 0 0 2-5"/><path fill="#192B36" d="M378 552q2.514.428 5 1l-1 5h-3v-2h-3c1-3 1-3 2-4"/><path fill="#2A3742" d="M385 534c2.313-.25 2.313-.25 5 0 1.813 2 1.813 2 3 4-3.766 1.255-5.372.37-9-1z"/><path fill="#3D474F" d="m369 531 2 1c-4.114 6.705-4.114 6.705-7.812 7.938L361 540q1.436-1.688 2.875-3.375l1.617-1.898A76 76 0 0 1 369 531"/><path fill="#9FAFB4" d="M679 508h1v17l-4-2 2-2c.465-3.122.465-3.122.625-6.625l.227-3.602z"/><path fill="#2C3840" d="m571 504 3 1a858 858 0 0 1-2.937 3.5l-1.653 1.969L568 512h-1c-.25-2.312-.25-2.312 0-5 1.813-1.875 1.813-1.875 4-3"/><path fill="#2B373E" d="M598 449c2.438.75 2.438.75 5 2 .813 2.125.813 2.125 1 4l-1.812-1c-2.242-1.208-2.242-1.208-5.188-1 0-3 0-3 1-4"/><path fill="#2F4049" d="m620 393 4 2v5c-2.5-1.312-2.5-1.312-5-3 0-3 0-3 1-4"/><path fill="#374751" d="M305 363c1 2 1 2 .441 3.945l-.878 2.18-.872 2.195L303 373l-4-1z"/><path fill="#445457" d="m350 363 4 2v2h6v1c-4.824.193-8.496-.243-13-2z"/><path fill="#D9E1DF" d="m404 274 3 2c-6.75 4-6.75 4-9 4v-4c2.813-1.125 2.813-1.125 6-2"/><path fill="#2D3A42" d="M571 770v3c-3.378.845-5.675 1.108-9 0v-2c3.058-.544 5.888-1 9-1"/><path fill="#2A3940" d="M700 490h1l1 9-3-1v-2h-2v-2h2z"/><path fill="#D8E2DF" d="M328 372h2l1 4-1.937.313L327 377l-1 3v-2l-2-1a105 105 0 0 1 4-5"/><path fill="#152B35" d="m472 352 5 1-1 5h-6c0-3 0-3 2-5z"/><path fill="#2C373D" d="M447 344c-1.562 2.063-1.562 2.063-4 4-3.75-.25-3.75-.25-7-1 3.276-3.276 6.51-3.125 11-3"/><path fill="#172935" d="m721 784 3 1h-2l-.875 1.875C720 789 720 789 718 791l-3-1 2-1-2-2h4v-2z"/><path fill="#D9E2E1" d="m749 770 1 2c-.996 1.945-.996 1.945-2.437 4.125l-1.434 2.195L745 780l-2-1c1.527-3.436 3.6-6.12 6-9"/><path fill="#9AA7A8" d="m681 737 1 2 2 1-5 4-1-2h-3z"/><path fill="#2B3943" d="M337 703c2.375.313 2.375.313 5 1l2 3-5 2z"/><path fill="#A0B0B5" d="m304 699 5 5-1 2c-1.937-.812-1.937-.812-4-2l-1-3z"/><path fill="#A2B3B4" d="M656 537c5.875 3.75 5.875 3.75 7 6l-6 1 2-1v-2l-3-1z"/><path fill="#172A36" d="m540 529 2 1c.625 2.563.625 2.563 1 5l-1-2h-2l-1 3-2-5z"/><path fill="#AFBAB9" d="m672 510 1 3h2l1 6-3 1-2-2 1-1q.062-3.5 0-7"/><path fill="#30404A" d="m606 455 4 4h-2v4l-5-1v-2l3-1z"/><path fill="#303E40" d="M310 392h2l1 3c-1.937 2.688-1.937 2.688-4 5l-2-1c1.875-4.75 1.875-4.75 3-7"/><path fill="#31404B" d="m298 373 1 2 3 1h-2l-2 5-1-2-2-1z"/><path fill="#293A43" d="m371 355 2 1c.625 2.563.625 2.563 1 5l-2 1-4-4z"/><path fill="#445457" d="M522 333c6.11-.113 11.952.104 18 1v1q-2.218.29-4.437.563l-2.497.316L531 336l-1-1a70 70 0 0 0-4.062-.562L522 334z"/><path fill="#1B2E32" d="M535 797c-2 2-2 2-4.602 2.195l-3.023-.07-3.04-.055L522 799v-1a311 311 0 0 1 4.25-1.062l2.39-.598c2.464-.355 4.016-.109 6.36.66"/><path fill="#182A31" d="M452 770v3l2 1-8-1c2.625-3 2.625-3 6-3m-6 4 3 1Z"/><path fill="#D1DDE0" d="M763 742c1.642 3.283.519 6.425 0 10h-3c.75-7.75.75-7.75 3-10"/><path fill="#2E383D" d="m346 554 3 1c-.687 1.938-.687 1.938-2 4-2.625.75-2.625.75-5 1 2.875-4.875 2.875-4.875 4-6"/><path fill="#172831" d="M502 507c2.782.376 4.588.673 6.813 2.438C510 511 510 511 510 513c-3.914-1.27-5.79-2.512-8-6"/><path fill="#D6DEE0" d="M650 393h4v2h2v2l3 1-4 1z"/><path fill="#B7BEC2" d="m729 383 4 1 1 5-2 1c-3-4.75-3-4.75-3-7"/><path fill="#2C3940" d="m624 370 6 4-2 2c-2.625-.375-2.625-.375-5-1z"/><path fill="#273842" d="M694 364c1.108 3.325.845 5.622 0 9l-3-2 1-5h2z"/><path fill="#2E3E45" d="M293 308h3c-.398 2.886-.79 3.822-3.062 5.75L291 315c0-3.106.54-4.353 2-7"/><path fill="#BEC4C0" d="m676 762 2 1v2l-6 3-1-3c2.375-1.562 2.375-1.562 5-3"/><path fill="#C9D8D4" d="m400 747 8 4v2c-3.775-1.09-6.47-1.908-9-5z"/><path fill="#C7CFCE" d="M317 744h6c.625 1.875.625 1.875 1 4l-2 2a105 105 0 0 1-5-4z"/><path fill="#293B46" d="m308 698 3 1v5h-3l-2-4z"/><path fill="#F2F6F7" d="m349 545 2 2c-.375 2.125-.375 2.125-1 4l-4 1c0-3.517.824-4.371 3-7"/><path fill="#CFD9DB" d="M648 435h2l2 5h2v5c-3.366-2.725-4.442-6.069-6-10"/><path fill="#2A3A3F" d="m424 372 5 2c-2.688 2.252-4.646 3.882-8 5v-3h3z"/><path fill="#1A2B30" d="M659 344q2.514.428 5 1l-1 3 1 3c-2.622-1.049-3.794-1.65-5.25-4.125L658 345z"/><path fill="#3D494F" d="M493 333v1h-5v2l-8-1v-1c4.41-1.102 8.484-1.077 13-1"/><path fill="#18272D" d="M682 310h1v14l-2 1-1-3 1-1a99 99 0 0 0 0-5 99 99 0 0 1 0-5z"/><path fill="#2A3A3E" d="M388 305h6v3l-4 2v-2l-3-1z"/><path fill="#D1DEDD" d="m587 290 7 1-1 3-5-1z"/><path fill="#CCD8D5" d="m460 282 1 3-5 1v-2l-4-1c2.892-.826 4.887-1 8-1"/><path fill="#E6EDE7" d="m419 753 4 1v2h-2v2l-4-1z"/><path fill="#39474E" d="M739 740c2 3 2 3 1.625 5.688L740 748l-3 1z"/><path fill="#CCD4D3" d="m376 734 9 1-1 4c-3.646-1.28-5.167-2.167-8-5"/><path fill="#A4AFB2" d="M699 720c0 3.38-.875 5.835-2 9h-2c-.812-1.687-.812-1.687-1-4 2.438-2.75 2.438-2.75 5-5"/><path fill="#F0F7FA" d="m363 534 2 2-7 6c1.048-4.192 1.918-5.216 5-8"/><path fill="#DFE5E8" d="m371 525 4 2-5 4c-.625-1.875-.625-1.875-1-4z"/><path fill="#B7C1C6" d="M644 426h2v2l3 1v6c-3.413-1.706-3.844-5.533-5-9"/><path fill="#2B3A47" d="m292 288-1 5-5-1v-2c3-2 3-2 6-2"/><path fill="#DBE4E5" d="m278 777 7 5c-3 1-3 1-6 0z"/><path fill="#ABB9B8" d="m363 755 2 1-2 4-4-2c1-2 1-2 4-3"/><path fill="#33414C" d="m619 752 1 3c-2.375.625-2.375.625-5 1l-2-2c3-2 3-2 6-2"/><path fill="#9CA8AC" d="M709 709c1.063 1.875 1.063 1.875 2 4l-1 2-5-1z"/><path fill="#323D42" d="m344 707 6 5-2 1-1 2v-2l-2-1 1-2h-2z"/><path fill="#293843" d="m313 704 3 2-1 3h-3l-1-2z"/><path fill="#313E43" d="M298 646h2l2 6-4 1z"/><path fill="#3F4A54" d="m437 568 3 3c-2.906 1.257-4.796 2-8 2z"/><path fill="#172B38" d="m546 520 4 1c-.375 2.438-.375 2.438-1 5l-2 1v-3l-2 1z"/><path fill="#C8D2D5" d="m282 472 2 3h2l-1 5h-3z"/><path fill="#DDE5E7" d="m379 413 1 3-5 5-2-1z"/><path fill="#253B46" d="M368 415c3.4 1.133 4.053 2.125 6 5l-2 2c-2-1.812-2-1.812-4-4z"/><path fill="#BAC3C6" d="m733 390 5 2v6c-2.252-2.688-3.882-4.646-5-8"/><path fill="#2D3B45" d="m711 388 1 2-2-1zm-3 2h2l1 5h-3c-.562-1.937-.562-1.937-1-4z"/><path fill="#323E46" d="M378 382c0 3.138-.352 4.398-2 7l-3 1c0-3 0-3 2.5-5.687z"/><path fill="#2E3C44" d="M651 363c2.375-.187 2.375-.187 5 0l2 3c-2.375.625-2.375.625-5 1l-2-2z"/><path fill="#BFCED2" d="m473 360-1 2h-10c4.012-2.675 6.366-3.49 11-2"/><path fill="#DDEDEC" d="m525 356 13 1v1l-10 1v-2z"/><path fill="#39454C" d="M270 305h1v5h-2v3h-3c1.125-2.972 2.223-5.334 4-8"/><path fill="#DBE4E1" d="m293 282 2 1 1 3-5 2-1-5z"/><path fill="#DDE5E4" d="M414 269h8c-3.285 2.19-6.207 2.998-10 4z"/><path fill="#2B3B44" d="M276 769h2l2 7h-3l-1-2h2z"/><path fill="#9FACAD" d="M666 749c0 3.908-1.506 5.116-4 8l-2-3z"/><path fill="#CDD3CF" d="M705 740h2v2h2l1-2v3l-5 2-1-3z"/><path fill="#A1B0B2" d="m317 714 4 4-3 2-3-3 2-1z"/><path fill="#2F3F4A" d="M737 602c1.46 2.647 2 3.894 2 7h-2l-1 3c-.125-6.625-.125-6.625 1-10"/><path fill="#2E3844" d="M739 590c3 4 3 4 2.688 7.75L741 601h-1z"/><path fill="#A9B9C0" d="m408 587 5 5h-6z"/><path fill="#ABB9BD" d="M402 583c1.875.313 1.875.313 4 1l2 3-4 1z"/><path fill="#303941" d="m360 540 2 1-3 5-4-1z"/><path fill="#B3C2C5" d="m598 482 4 2-2 3-3-1z"/><path fill="#A1AEB3" d="M649 430c2.248 2.052 3.002 3.007 4 6l-2 2c-2.152-3.228-2.2-4.284-2-8"/><path fill="#39464E" d="M390 399h2c-1.37 3.161-1.99 3.993-5 6l-1-4h4z"/><path fill="#D2D9DA" d="m380 348 1 2h2l-1 5-4 1z"/><path fill="#1C2B33" d="M355 320h1v7h-3c-.125-2.375-.125-2.375 0-5z"/><path fill="#ECF5F7" d="m633 310 4 2v5l-3 1z"/><path fill="#DDECEB" d="m624 305 8 4c-3.133 1.044-3.99.934-7 0z"/><path fill="#36474E" d="m619 297 2 1Zm0 1c-2.572 1.62-3.677 2.044-6.75 1.625L610 299c3.35-2.11 5.221-2.05 9-1"/><path fill="#CBD7D6" d="M584 261c2.884 1.293 4.872 2.66 7 5l-8-2z"/><path fill="#EBF2EF" d="m644 242 2 4-4 3c-.687-1.812-.687-1.812-1-4 1.438-1.75 1.438-1.75 3-3"/></svg>